<?xml version="1.0" standalone="no"?> <!DOCTYPE svg PUBLIC "-//W3C//DTD SVG 1.0//EN" "http://www.w3.org/TR/2001/REC-SVG-20010904/DTD/svg10.dtd" > <svg xmlns="http://www.w3.org/2000/svg" width="100%" height="100%">
<defs >
<font id="nissanaglig" horiz-adv-x="848" ><font-face
    font-family="Nissan AG Light"
    units-per-em="2048"
    panose-1="2 0 5 6 4 0 0 2 0 3"
    ascent="2044"
    descent="-616"
    alphabetic="0" />
<missing-glyph horiz-adv-x="1024" d="M0 0V1446H1024V0H0ZM512 821L860 1343H164L512 821ZM573 723L922 195V1251L573 723ZM164 102H860L512 631L164 102ZM102 1251V195L451 723L102 1251Z" />
<glyph unicode=" " glyph-name="space" horiz-adv-x="528" />
<glyph unicode="!" glyph-name="exclam" horiz-adv-x="425" d="M188 1458H319V629L301 360H205L188 629V1458ZM332 0H176V238H332V0Z" />
<glyph unicode="&quot;" glyph-name="quotedbl" horiz-adv-x="731" d="M627 1522L573 926H512L457 1522H627ZM274 1522L221 926H160L104 1522H274Z" />
<glyph unicode="#" glyph-name="numbersign" horiz-adv-x="1366" d="M1278 840H920L893 641H1237V530H879L807 0H680L758 530H551L473 0H354L428 530H86V641H444L471 840H129V956H485L551 1450H680L610 956H815L879 1450H1001L934 956H1278V840ZM799 840H594L565
641H772L799 840Z" />
<glyph unicode="$" glyph-name="dollar" horiz-adv-x="1236" d="M662 -188H543V0Q190 36 53 365L199 379Q247 276 336 210T543 127V709Q139 816 139 1081Q139 1145 157 1199T202 1289T269 1353T344 1398T422 1425T490 1440T543 1446V1573H662V1446Q813 1433 918
1352T1065 1112L928 1098Q910 1148 883 1187T828 1249T768 1287T711 1309T662 1317V811Q724 793 766 780T862 746T950 705T1023 654T1081 591T1116 513T1130 416Q1130 382 1123 344T1096 255T1032 156T924 70Q806 5 662 0V-188ZM543 848V1321Q478 1318 428 1300T350
1257T303 1202T280 1144T274 1092Q274 920 543 848ZM662 670V123Q740 123 801 145T896 198T953 270T983 343T991 403Q991 460 967 503T894 578T793 629T662 670Z" />
<glyph unicode="%" glyph-name="percent" horiz-adv-x="1792" d="M1307 1495L584 -80L502 -43L1221 1534L1307 1495ZM63 999Q63 1089 81 1169T136 1316T237 1422T387 1462Q454 1462 507 1439T593 1374T650 1284T685 1179T700 1076T705 983Q705 780 620 653T383
526Q311 526 254 556T161 634T104 746T72 872T63 999ZM168 991Q168 970 169 949T174 889T187 816T211 744T249 680T307 636T385 618Q439 618 479 645T542 711T578 805T596 904T600 995Q600 1168 542 1270T387 1372Q328 1372 284 1341T216 1254T180 1134T168 991ZM1085
457Q1085 547 1103 626T1158 773T1259 880T1409 920Q1489 920 1549 885T1641 799T1694 678T1720 553T1726 440Q1726 237 1642 111T1405 -16Q1315 -16 1250 28T1150 146T1101 297T1085 457ZM1190 449Q1190 427 1191 406T1196 346T1209 273T1233 202T1271 138T1329
94T1407 76Q1461 76 1501 103T1564 169T1600 263T1618 361T1622 453Q1622 626 1564 727T1409 829Q1350 829 1306 798T1238 711T1202 591T1190 449Z" />
<glyph unicode="&amp;" glyph-name="ampersand" horiz-adv-x="1323" d="M1012 647H1141Q1131 516 1108 444T1038 281Q1083 225 1105 200T1157 149T1212 115T1270 106V-18Q1203 -18 1144 10T1048 74T961 170Q815 -16 563 -16Q395 -16 276 70Q113 191 113 385Q113
459 138 528T196 644T286 742T379 818T475 881Q358 1034 358 1190Q358 1317 437 1395T645 1473Q767 1473 847 1406T928 1219Q928 1167 911 1118T868 1030T803 955T728 892T647 838Q676 791 735 703T813 588Q904 453 961 385Q983 444 994 496T1008 575T1012 647ZM582
946Q673 988 737 1055T801 1210Q801 1230 795 1252T773 1299T725 1341T647 1358Q606 1358 575 1345T527 1314T500 1271T486 1228T483 1190Q483 1169 488 1146T498 1106T517 1062T536 1024T560 983T582 946ZM891 262Q836 337 778 423T651 612T543 774Q491 741 456
717T379 655T313 581T271 495T254 391Q254 331 274 281T327 199T402 144T484 112T563 102Q758 102 891 262Z" />
<glyph unicode="&apos;" glyph-name="quotesingle" horiz-adv-x="378" d="M274 1522L221 926H160L104 1522H274Z" />
<glyph unicode="(" glyph-name="parenleft" horiz-adv-x="630" d="M580 1632L629 1565Q428 1399 333 1182T238 674Q238 551 261 425T330 173T456 -65T637 -256L586 -332Q343 -148 216 108T88 666Q88 958 216 1219T580 1632Z" />
<glyph unicode=")" glyph-name="parenright" horiz-adv-x="641" d="M16 1565L68 1640Q309 1455 436 1200T563 645Q563 351 434 89T68 -324L18 -258Q221 -91 316 127T412 637Q412 913 313 1159T16 1565Z" />
<glyph unicode="*" glyph-name="asterisk" horiz-adv-x="731" d="M664 1219L438 1139L575 952L500 897L360 1081L236 897L158 952L285 1141L68 1202L96 1290L313 1233V1456H412V1229L633 1303L664 1219Z" />
<glyph unicode="+" glyph-name="plus" horiz-adv-x="1482" d="M1290 539H803V51H680V539H193V662H680V1147H803V662H1290V539Z" />
<glyph unicode="," glyph-name="comma" horiz-adv-x="342" d="M90 238H252V37Q252 -88 235 -161T158 -324L90 -276Q137 -200 152 -145T168 0H90V238Z" />
<glyph unicode="-" glyph-name="hyphen" horiz-adv-x="698" d="M621 541H78V664H621V541Z" />
<glyph unicode="." glyph-name="period" horiz-adv-x="342" d="M252 0H90V238H252V0Z" />
<glyph unicode="/" glyph-name="slash" horiz-adv-x="980" d="M961 1446L176 0H20L809 1446H961Z" />
<glyph unicode="0" glyph-name="zero" horiz-adv-x="1193" d="M90 735Q90 793 95 854T116 990T156 1130T220 1261T311 1372T437 1446T600 1475Q679 1475 746 1453T862 1396T950 1308T1013 1203T1056 1087T1084 971T1098 862T1105 772T1106 707Q1106 666 1103 617T1086
494T1051 352T991 213T899 91T769 6T594 -27Q430 -27 315 73T145 342T90 735ZM227 727Q227 647 234 575T257 428T301 294T369 187T467 114T598 88Q677 88 740 120T845 209T916 346T956 516T969 711Q969 845 948 958T885 1164T769 1309T598 1362Q532 1362 477 1337T384
1270T317 1172T272 1058T245 936T231 823T227 727Z" />
<glyph unicode="1" glyph-name="one" horiz-adv-x="1193" d="M717 0H592V1174Q562 1148 494 1132T365 1116H330V1227Q346 1227 364 1228T416 1235T478 1254T533 1286T576 1338T592 1415V1446H717V0Z" />
<glyph unicode="2" glyph-name="two" horiz-adv-x="1193" d="M123 0V113Q293 216 474 354T764 606Q950 800 950 1022Q950 1175 854 1270T592 1366Q447 1366 344 1277T240 1040Q240 906 340 795L172 815Q121 943 121 1053Q121 1138 150 1213T236 1347T385 1440T594
1475Q664 1475 731 1461T863 1411T976 1325T1055 1193T1085 1014Q1085 852 987 696Q925 597 816 491T599 306T417 179T311 113H1036V0H123Z" />
<glyph unicode="3" glyph-name="three" horiz-adv-x="1193" d="M356 694V807H561Q744 807 828 878T913 1077Q913 1151 885 1208T809 1299T707 1349T594 1366Q529 1366 474 1348T384 1304T323 1243T284 1179T264 1122Q258 1098 258 1044L115 1083Q131 1150 155
1205T218 1311T308 1398T432 1454T594 1475Q787 1475 913 1372Q1042 1269 1042 1073Q1042 975 1002 901T879 791Q829 769 727 756Q819 752 891 719Q922 705 950 683T1008 623T1055 529T1073 403Q1073 319 1048 248T977 127T871 42T739 -10T590 -27Q503 -27 430
-8T306 43T222 108T166 176Q102 275 88 414L225 459Q225 360 253 288T331 173T447 110T592 90Q674 90 737 110T836 162T896 235T928 315T936 393Q936 552 836 631Q798 660 746 675T658 692T557 694H356Z" />
<glyph unicode="4" glyph-name="four" horiz-adv-x="1193" d="M1110 362H885V0H760V362H115V467L750 1446H885V475H1110V362ZM760 475V1243L256 475H760Z" />
<glyph unicode="5" glyph-name="five" horiz-adv-x="1193" d="M967 1446V1325H322L293 827Q329 901 408 951T614 1001Q813 1001 943 865T1073 496Q1073 350 1019 233T852 43T588 -29Q388 -29 262 77T109 381L242 420Q244 275 333 181T584 86Q757 86 847 198T938
492Q938 570 918 640T859 767T751 859T596 893Q484 893 397 820T283 616L178 629Q201 1395 203 1446H967Z" />
<glyph unicode="6" glyph-name="six" horiz-adv-x="1193" d="M1096 1155L961 1108Q958 1141 950 1171T922 1238T870 1299T787 1342T666 1360Q597 1360 540 1342T442 1294T369 1218T317 1124T283 1013T261 895T248 770Q388 969 641 969Q820 969 942 870Q997 826
1033 767T1085 646T1105 545T1110 467Q1110 251 980 112T621 -27Q117 -27 117 678Q117 1091 272 1290Q417 1475 662 1475Q757 1475 833 1449T961 1375T1044 1274T1096 1155ZM254 510Q254 472 261 430T283 339T328 246T396 166T495 108T625 86Q710 86 775 115T877
185T937 282T968 381T975 467Q975 653 882 755T631 858Q579 858 527 845T425 802T338 733T277 635T254 510Z" />
<glyph unicode="7" glyph-name="seven" horiz-adv-x="1193" d="M1047 1446V1325Q912 1142 829 991Q763 870 712 740T632 514T583 304T556 136T541 0H403Q436 518 719 1004Q791 1129 930 1325H246V1001H129V1446H1047Z" />
<glyph unicode="8" glyph-name="eight" horiz-adv-x="1193" d="M811 770Q855 759 902 732T996 660T1072 546T1102 395Q1102 211 964 92T600 -27Q471 -27 371 11T211 112T122 249T92 403Q92 525 166 626T389 770Q359 781 329 797T265 842T206 905T164 989T147 1094Q147
1170 176 1238T260 1359T403 1444T602 1475Q801 1475 931 1375T1061 1100Q1061 970 991 885T811 770ZM276 1087Q276 967 373 894T604 821Q643 821 682 827T768 852T849 899T907 978T930 1092Q930 1139 914 1183T864 1269T762 1336T602 1362Q529 1362 471 1344T377
1297T318 1230T285 1157T276 1087ZM229 403Q229 361 240 320T278 236T347 162T453 110T598 90Q771 90 869 177T967 406Q967 532 867 620T598 709Q542 709 490 698T390 662T307 602T250 515T229 403Z" />
<glyph unicode="9" glyph-name="nine" horiz-adv-x="1193" d="M102 293L244 344Q270 86 539 86Q597 86 646 98T732 129T799 181T851 245T888 324T914 411T931 506T941 603T948 702Q897 603 795 541T547 479Q452 479 368 512T220 607T119 763T82 973Q82 1194 213
1334T563 1475Q1079 1475 1079 764Q1079 695 1076 634T1059 489T1023 338T959 200T861 82T721 4T532 -27Q200 -27 102 293ZM219 975Q219 917 229 865T263 763T326 676T426 617T567 594Q652 594 724 622T841 698T912 804T938 926Q938 1011 915 1088T848 1228T729
1330T561 1368Q400 1368 310 1262T219 975Z" />
<glyph unicode=":" glyph-name="colon" horiz-adv-x="425" d="M338 721H176V958H338V721ZM338 0H176V238H338V0Z" />
<glyph unicode=";" glyph-name="semicolon" horiz-adv-x="425" d="M338 721H176V958H338V721ZM176 238H338V2Q338 -101 318 -169T242 -324L176 -276Q224 -200 239 -146T254 0H176V238Z" />
<glyph unicode="&lt;" glyph-name="less" horiz-adv-x="1482" d="M1188 41L233 524V664L1188 1153V1022L350 596L1188 174V41Z" />
<glyph unicode="=" glyph-name="equal" horiz-adv-x="1482" d="M1280 715H203V836H1280V715ZM1280 354H203V473H1280V354Z" />
<glyph unicode="&gt;" glyph-name="greater" horiz-adv-x="1482" d="M1249 526L297 35V168L1135 594L297 1016V1147L1249 664V526Z" />
<glyph unicode="?" glyph-name="question" horiz-adv-x="980" d="M436 346V418Q436 494 452 545T524 653Q549 679 599 725T680 803T746 879T798 972T815 1075Q815 1085 814 1099T806 1142T789 1196T757 1251T706 1301T632 1336T532 1350Q402 1350 332 1270T262
1073Q262 968 313 874L160 920Q137 1027 137 1085Q137 1159 155 1219T202 1319T270 1387T346 1432T424 1456T490 1468T537 1470Q635 1470 714 1437T843 1346T919 1217T946 1063Q946 944 883 844Q867 818 841 787T796 738T738 683T688 637Q606 558 585 517T563 420V346H436ZM582
0H422V238H582V0Z" />
<glyph unicode="@" glyph-name="at" horiz-adv-x="1835" d="M1198 1008H1319L1253 709Q1249 691 1234 623T1212 525T1199 442T1192 346Q1192 307 1211 277T1268 246Q1316 246 1382 307Q1483 398 1541 557T1599 866Q1599 1102 1457 1235T1077 1368Q903 1368 746
1294T477 1098T299 813T233 479Q233 329 286 207T432 5T652 -119T926 -162Q1117 -162 1298 -83T1618 135L1673 70Q1503 -87 1321 -170T926 -254Q763 -254 620 -203T371 -59T203 172T141 477Q141 670 214 850T413 1163T714 1377T1085 1458Q1361 1458 1527 1300T1694
868Q1694 724 1651 589T1541 358T1391 205T1227 147Q1063 147 1063 338Q1005 253 926 202T754 150Q687 150 635 177T554 251T509 354T494 475Q494 550 512 630T568 785T655 921T774 1018T922 1055Q1094 1055 1165 860L1198 1008ZM1122 721Q1122 814 1073 880T934
946Q863 946 803 898T708 776T653 625T633 483Q633 390 677 325T811 260Q884 260 946 307T1045 426T1102 575T1122 721Z" />
<glyph unicode="A" glyph-name="A" horiz-adv-x="1323" d="M1300 0H1151L985 436H338L172 0H20L610 1446H725L1300 0ZM944 547L666 1286L383 547H944Z" />
<glyph unicode="B" glyph-name="B" horiz-adv-x="1366" d="M166 1446H815Q1059 1446 1165 1300Q1235 1206 1235 1085Q1235 1048 1227 1010T1198 933T1148 863T1074 809T975 778Q1123 749 1202 653T1282 408Q1282 373 1277 337T1254 246T1193 140T1085 55T943 11T762
0H166V1446ZM303 1323V834H772Q940 834 1016 903T1092 1087Q1092 1171 1049 1229Q1024 1262 990 1283T911 1311T835 1321T752 1323H303ZM303 125H817Q969 125 1057 195T1145 403Q1145 577 999 662Q957 687 902 699T809 713T705 715H303V125Z" />
<glyph unicode="C" glyph-name="C" horiz-adv-x="1366" d="M1280 1108L1141 1038Q1127 1102 1099 1155T1024 1257T900 1334T723 1362Q635 1362 563 1337T443 1272T358 1176T300 1063T267 942T250 829T246 731Q246 86 750 86Q900 86 1001 169T1141 393L1270 315Q1182
133 1056 48T733 -37Q627 -37 538 -12T385 55T271 156T190 281T138 423T110 570T102 715Q102 784 109 852T135 997T184 1143T262 1274T373 1383T524 1456T719 1483Q820 1483 903 1462T1043 1408T1147 1324T1223 1223T1280 1108Z" />
<glyph unicode="D" glyph-name="D" horiz-adv-x="1409" d="M166 1446H614Q685 1446 728 1444T830 1434T931 1409T1022 1362T1112 1286Q1160 1235 1200 1169T1273 983T1307 727Q1307 682 1302 632T1281 499T1222 328T1116 170Q1037 80 930 39Q863 13 786 7T543
0H166V1446ZM305 1321V123H522Q675 123 763 132T907 168Q976 200 1028 263T1110 404T1153 563T1167 723Q1167 772 1161 828T1135 957T1085 1093T1000 1211T877 1292Q822 1312 761 1316T559 1321H305Z" />
<glyph unicode="E" glyph-name="E" horiz-adv-x="1236" d="M1161 0H166V1446H1110V1321H303V805H1034V678H303V127H1161V0Z" />
<glyph unicode="F" glyph-name="F" horiz-adv-x="1150" d="M1112 1325H299V836H1028V717H299V0H166V1446H1112V1325Z" />
<glyph unicode="G" glyph-name="G" horiz-adv-x="1449" d="M623 756H1274V0H1155V242Q1116 142 1044 78T892 -12T719 -37Q590 -37 485 5T309 118T192 287T123 490T102 713Q102 787 111 859T143 1009T199 1154T285 1283T402 1388T557 1457T752 1483Q827 1483 893
1469T1007 1433T1097 1378T1166 1315T1218 1244T1256 1177T1284 1116L1155 1047Q1138 1112 1109 1166T1033 1268T918 1341T764 1368Q659 1368 567 1328T403 1211T290 1007T248 719Q248 413 377 250T725 86Q752 86 776 88T847 101T931 133T1012 194T1085 290T1135
434T1155 631H623V756Z" />
<glyph unicode="H" glyph-name="H" horiz-adv-x="1492" d="M1327 0H1190V678H301V0H166V1446H301V801H1190V1446H1327V0Z" />
<glyph unicode="I" glyph-name="I" horiz-adv-x="468" d="M303 0H166V1446H303V0Z" />
<glyph unicode="J" glyph-name="J" horiz-adv-x="1024" d="M723 1446H858V442Q858 355 849 289T814 160T744 57T627 -8T455 -33Q139 -33 55 207Q46 234 40 267T32 324T29 371T27 397L172 430Q170 408 170 362Q170 227 236 162Q311 88 467 88Q614 88 678 186Q699
219 709 273T721 363T723 457V1446Z" />
<glyph unicode="K" glyph-name="K" horiz-adv-x="1366" d="M1329 0H1161L621 782L305 465V0H166V1446H305V639L1092 1446H1280L715 872L1329 0Z" />
<glyph unicode="L" glyph-name="L" horiz-adv-x="1150" d="M1104 0H166V1446H305V127H1104V0Z" />
<glyph unicode="M" glyph-name="M" horiz-adv-x="1622" d="M1456 0H1321L1331 1229L860 0H766L285 1229Q301 25 301 0H166V1446H328L817 219L1286 1446H1456V0Z" />
<glyph unicode="N" glyph-name="N" horiz-adv-x="1449" d="M1284 0H1149L301 1249V0H166V1446H301L1159 209Q1149 1415 1149 1446H1284V0Z" />
<glyph unicode="O" glyph-name="O" horiz-adv-x="1449" d="M102 727Q102 789 109 853T136 994T185 1137T265 1269T378 1380T531 1455T729 1483Q1017 1483 1182 1286T1348 741Q1348 626 1328 518T1260 308T1143 130T967 9T729 -37Q627 -37 540 -11T389 59T276 166T193
295T140 439T111 586T102 727ZM248 723Q248 677 252 629T269 516T304 394T362 279T447 180T566 112T723 86Q830 86 915 128T1053 236T1140 392T1188 568T1202 745Q1202 796 1196 849T1175 964T1136 1082T1074 1190T989 1280T874 1341T729 1364Q642 1364 569 1338T445
1264T355 1155T293 1020T259 873T248 723Z" />
<glyph unicode="P" glyph-name="P" horiz-adv-x="1280" d="M166 1446H745Q934 1446 1017 1423T1161 1331Q1255 1223 1255 1051Q1255 896 1174 788Q1136 740 1090 712T976 670T848 654T680 651H297V0H166V1446ZM297 1331V772H803Q1122 772 1122 1053Q1122 1149
1081 1217Q1057 1256 1025 1280T949 1315T872 1328T786 1331H297Z" />
<glyph unicode="Q" glyph-name="Q" horiz-adv-x="1449" d="M1423 59L1337 -33L1155 135Q1123 103 1091 79T1007 25T883 -20T729 -37Q591 -37 481 10T301 133T186 308T121 508T102 709Q102 873 145 1014T267 1259T469 1423T741 1483Q873 1483 980 1436T1155 1314T1268
1140T1333 941T1352 739Q1352 453 1229 240L1423 59ZM1212 715Q1212 765 1208 817T1190 934T1155 1058T1097 1174T1011 1272T892 1338T735 1364Q625 1364 538 1322T397 1213T309 1059T260 885T246 713Q246 667 250 619T268 506T303 385T362 271T448 173T569 106T729
80Q953 80 1082 252T1212 715Z" />
<glyph unicode="R" glyph-name="R" horiz-adv-x="1323" d="M166 1446H727Q1021 1446 1139 1305Q1231 1192 1231 1032Q1231 848 1108 745T803 641L1272 0H1100L643 641H305V0H166V1446ZM305 1323V760H737Q794 760 841 766T938 790T1020 838T1075 919T1096 1038Q1096
1132 1053 1200Q1007 1276 934 1299T752 1323H305Z" />
<glyph unicode="S" glyph-name="S" horiz-adv-x="1236" d="M1149 1165L1022 1098Q998 1174 963 1223Q923 1280 844 1325T647 1370Q557 1370 489 1347T383 1286T326 1204T307 1112Q307 1073 317 1040T343 984T385 939T434 906T493 880T552 859T614 842L754 805Q856
778 931 743T1063 660T1149 545T1178 395Q1178 195 999 66Q855 -37 639 -37T284 61T100 365L238 436Q243 333 270 274Q306 195 397 140T639 84Q829 84 933 172T1038 391Q1038 507 965 573T731 680L565 723Q504 739 460 754T358 800T263 870T200 970T174 1108Q174
1185 203 1251T288 1370T438 1453T651 1483Q1032 1483 1149 1165Z" />
<glyph unicode="T" glyph-name="T" horiz-adv-x="1110" d="M1079 1325H623V0H485V1325H31V1446H1079V1325Z" />
<glyph unicode="U" glyph-name="U" horiz-adv-x="1409" d="M1245 1446V539Q1245 438 1230 356T1176 199T1078 73T923 -7T705 -37Q667 -37 630 -34T537 -18T432 16T333 79T246 176T187 318T164 510V1446H299V473Q299 380 326 310T394 199T491 133T599 99T707 90Q906
90 1007 189T1108 508V1446H1245Z" />
<glyph unicode="V" glyph-name="V" horiz-adv-x="1236" d="M1217 1446L674 0H551L20 1446H172L616 188L1071 1446H1217Z" />
<glyph unicode="W" glyph-name="W" horiz-adv-x="1792" d="M1769 1446L1358 0H1247L901 1169L557 0H449L20 1446H168L508 246L852 1446H946L1303 246L1632 1446H1769Z" />
<glyph unicode="X" glyph-name="X" horiz-adv-x="1366" d="M1323 0H1153L686 692L201 0H43L592 778L119 1446H293L686 862L1087 1446H1253L778 778L1323 0Z" />
<glyph unicode="Y" glyph-name="Y" horiz-adv-x="1280" d="M1260 1446L694 598V0H559V598L20 1446H182L629 727L1094 1446H1260Z" />
<glyph unicode="Z" glyph-name="Z" horiz-adv-x="1193" d="M1135 1352L254 123H1122V0H59V90L950 1323H113V1446H1135V1352Z" />
<glyph unicode="[" glyph-name="bracketleft" horiz-adv-x="555" d="M500 -295H152V1595H500V1491H276V-193H500V-295Z" />
<glyph unicode="\" glyph-name="backslash" horiz-adv-x="980" d="M961 0H809L20 1446H176L961 0Z" />
<glyph unicode="]" glyph-name="bracketright" horiz-adv-x="555" d="M401 -293H53V-190H276V1495H53V1597H401V-293Z" />
<glyph unicode="^" glyph-name="asciicircum" horiz-adv-x="1482" d="M1221 592H1090L741 1329L393 592H262L670 1446H809L1221 592Z" />
<glyph unicode="_" glyph-name="underscore" horiz-adv-x="1024" d="M1044 -422H-20V-301H1044V-422Z" />
<glyph unicode="`" glyph-name="grave" horiz-adv-x="555" d="M508 1143H399L47 1430H276L508 1143Z" />
<glyph unicode="a" glyph-name="a" horiz-adv-x="1024" d="M1008 0H983Q857 0 801 39T745 178Q736 148 711 116T644 52T539 0T399 -20Q252 -20 172 57T92 246Q92 304 113 349T170 427T270 489T405 539T582 584L745 621V696Q745 735 735 768T700 831T629 878T518
895Q372 895 313 839T254 659L121 682Q139 833 238 917T504 1001Q862 1001 862 707V279Q862 246 862 227T865 186T873 152T887 127T909 109T942 100T987 96H1008V0ZM745 442V516L684 500Q650 491 589 475Q525 459 496 451T419 429T352 407T301 384T258 358T232
329T214 292T209 248Q209 187 258 137T406 86Q499 86 591 137T719 270Q745 329 745 442Z" />
<glyph unicode="b" glyph-name="b" horiz-adv-x="1067" d="M154 1446H270V811Q283 841 306 870T364 930T453 978T569 997Q654 997 723 966T839 883T917 762T963 621T977 473Q977 409 967 347T929 216T857 96T741 11T575 -23Q457 -23 382 33T270 174V0H154V1446ZM270
492Q270 439 276 390T301 283T350 184T435 114T561 86Q698 86 773 185T848 469Q848 556 831 629T780 762T687 855T551 889Q415 889 343 787T270 492Z" />
<glyph unicode="c" glyph-name="c" horiz-adv-x="980" d="M807 246L930 217Q814 -25 539 -25Q333 -25 212 114T90 481Q90 718 220 859T559 1001Q706 1001 797 934T930 756L817 729Q786 808 715 850T553 893Q445 893 368 835T256 687T221 487Q221 311 302 197T543
82Q720 82 807 246Z" />
<glyph unicode="d" glyph-name="d" horiz-adv-x="1067" d="M913 0H795V176Q762 82 679 30T494 -23Q314 -23 202 122T90 489Q90 634 141 749T289 930T512 997Q610 997 689 950T795 821V1446H913V0ZM221 489Q221 385 244 306T309 182T402 114T512 92Q639 92 718
186T797 471V524Q797 616 777 685T727 792T657 852T585 881T518 887Q381 887 301 779T221 489Z" />
<glyph unicode="e" glyph-name="e" horiz-adv-x="1067" d="M223 487V459Q223 420 229 381T248 298T287 218T347 151T434 103T551 86Q591 86 626 92T706 118T793 181T868 291L981 258Q854 -25 557 -25Q475 -25 407 -5T291 49T207 127T149 220T114 320T95 415T90
498Q90 619 128 716T230 875T374 968T541 1001Q641 1001 725 960T865 849T950 691T981 506V487H223ZM225 588H842Q834 660 810 716T754 804T683 858T609 886T539 893Q465 893 406 865T310 791T252 694T225 588Z" />
<glyph unicode="f" glyph-name="f" horiz-adv-x="641" d="M604 874H383V0H262V874H47V977H262V1247Q262 1281 264 1305T279 1364T313 1421T377 1459T479 1475Q520 1475 604 1460V1341Q538 1368 487 1368Q427 1368 405 1332T383 1233V977H604V874Z" />
<glyph unicode="g" glyph-name="g" horiz-adv-x="1110" d="M838 977H954V-61Q954 -131 946 -186T911 -303T838 -405T711 -473T520 -500Q429 -500 356 -479T237 -424T159 -343T114 -250T98 -152L225 -129Q230 -159 234 -178T248 -229T271 -280T308 -324T362 -362T437
-385T537 -395Q627 -395 686 -372T779 -297T825 -177T838 -8V188Q835 171 825 149T790 95T731 40T640 -2T514 -20Q321 -20 206 119T90 494Q90 624 125 723T221 881T356 968T516 997Q631 997 722 942T838 797V977ZM213 498Q213 313 290 201T524 88Q692 88 763 195T834
504Q834 893 530 893Q387 893 300 791T213 498Z" />
<glyph unicode="h" glyph-name="h" horiz-adv-x="1067" d="M911 0H793V618Q793 659 789 693T769 765T730 828T663 870T563 887Q465 887 406 846T317 750Q290 697 283 630T276 422V0H154V1446H276V821Q290 850 311 876T367 932T457 979T580 997Q604 997 630 994T697
980T778 943T848 877Q887 824 899 757T911 551V0Z" />
<glyph unicode="i" glyph-name="i" horiz-adv-x="425" d="M272 1206H154V1393H272V1206ZM272 0H154V977H272V0Z" />
<glyph unicode="j" glyph-name="j" horiz-adv-x="425" d="M272 1206H154V1393H272V1206ZM154 977H272V-223Q272 -310 266 -359T240 -442Q193 -524 78 -524Q-19 -524 -98 -483V-369L-78 -381Q-9 -418 63 -418Q125 -418 139 -383T154 -246V977Z" />
<glyph unicode="k" glyph-name="k" horiz-adv-x="1024" d="M1001 0H854L481 506L272 307V0H154V1446H272V463L821 977H973L565 588L1001 0Z" />
<glyph unicode="l" glyph-name="l" horiz-adv-x="425" d="M274 0H152V1446H274V0Z" />
<glyph unicode="m" glyph-name="m" horiz-adv-x="1579" d="M1425 0H1305V612Q1305 711 1292 765T1237 852Q1192 887 1116 887Q961 887 887 729Q861 674 855 611T848 408V0H729V543Q729 654 724 710T698 803Q652 887 541 887Q395 887 324 756Q291 695 283 624T274
393V0H154V977H274V774Q292 881 376 939T565 997Q669 997 730 951T813 850Q828 810 834 754Q849 813 872 852Q886 877 905 899T956 945T1035 983T1139 997Q1247 997 1315 948Q1388 897 1406 809T1425 530V0Z" />
<glyph unicode="n" glyph-name="n" horiz-adv-x="1067" d="M913 0H793V508Q793 589 792 626T786 705T770 774Q745 837 688 863T567 889Q423 889 349 796T274 559V0H154V977H274V803Q279 818 286 834T318 882T373 937T459 978T582 997Q647 997 700 981T788 938T844
885T879 829Q901 781 907 725T913 555V0Z" />
<glyph unicode="o" glyph-name="o" horiz-adv-x="1067" d="M977 494Q977 388 951 300T880 153T778 53T657 -6T528 -25Q335 -25 213 110T90 477T210 855T537 1001Q647 1001 733 957T870 840T948 678T977 494ZM848 494Q848 604 821 686T748 812T649 878T535 899Q394
899 307 793T219 477Q219 369 245 289T318 166T416 102T530 82T644 103T745 169T820 298T848 494Z" />
<glyph unicode="p" glyph-name="p" horiz-adv-x="1067" d="M154 977H272V817Q285 848 306 876T362 934T449 980T567 997Q641 997 702 976T804 921T878 840T928 747T957 649T973 559T977 485Q977 444 970 396T946 289T899 176T824 77T715 4T567 -23Q451 -23 376
33T272 164V-518H154V977ZM272 502V453Q272 346 296 273T379 152Q446 94 549 94Q614 94 666 118T753 183T810 277T842 387T852 502Q852 574 836 639T785 761T690 853T547 887Q479 887 428 861T348 795T301 702T278 600T272 502Z" />
<glyph unicode="q" glyph-name="q" horiz-adv-x="1024" d="M911 -518H795V168Q769 106 726 64T636 5T557 -17T496 -23Q416 -23 344 11T214 109T124 273T90 496Q90 736 206 866T500 997Q562 997 619 980T725 921T795 821V977H911V-518ZM797 487Q797 560 791 613T758
730T682 831Q610 887 516 887Q436 887 375 852T281 758T231 635T215 500Q215 393 246 303T349 151T520 90Q560 90 592 99T639 117T674 141Q724 180 752 243T788 360T797 487Z" />
<glyph unicode="r" glyph-name="r" horiz-adv-x="641" d="M154 977H274V821Q351 991 543 991Q592 991 627 987V879Q590 885 549 885Q274 885 274 535V0H154V977Z" />
<glyph unicode="s" glyph-name="s" horiz-adv-x="937" d="M70 238L188 279Q195 250 213 220T262 158T345 106T461 86Q528 86 578 103T657 149T698 210T711 276Q711 342 664 385T500 453L385 477Q263 504 197 561T131 721Q131 845 215 920Q262 962 334 981T481
1001Q631 1001 721 938Q802 881 827 780L713 750Q702 803 662 837T576 883T475 895Q405 895 357 879T287 835T258 783T250 731Q250 698 264 672T297 631T347 603T400 585T455 573L557 553Q687 527 757 454T827 268Q827 222 808 174T749 80T635 5T463 -25Q179 -25
70 238Z" />
<glyph unicode="t" glyph-name="t" horiz-adv-x="598" d="M352 874V207Q352 188 353 174T359 142T372 114T396 96T432 88Q482 88 567 150V27Q511 -18 406 -18Q282 -18 250 70Q236 110 236 229V874H31V977H236V1393H352V977H567V874H352Z" />
<glyph unicode="u" glyph-name="u" horiz-adv-x="1067" d="M913 0H793V176Q704 -23 481 -23Q376 -23 294 31T180 184Q154 272 154 498V977H276V471Q276 301 293 233Q332 90 496 90Q648 90 727 199Q767 255 780 323T793 483V977H913V0Z" />
<glyph unicode="v" glyph-name="v" horiz-adv-x="854" d="M713 977H831L457 0H358L20 977H141L412 182L713 977Z" />
<glyph unicode="w" glyph-name="w" horiz-adv-x="1409" d="M1366 977L1057 0H956L715 805L475 0H373L43 977H160L422 188L662 977H764L1006 188L1249 977H1366Z" />
<glyph unicode="x" glyph-name="x" horiz-adv-x="937" d="M893 0H756L469 416L172 0H43L401 508L72 977H213L469 604L733 977H862L535 508L893 0Z" />
<glyph unicode="y" glyph-name="y" horiz-adv-x="894" d="M752 977H874L414 -190Q351 -351 320 -400Q269 -482 188 -494Q171 -496 152 -496Q79 -496 23 -457V-334Q89 -381 150 -381Q198 -381 222 -351T281 -233L371 0L33 977H150L434 145L752 977Z" />
<glyph unicode="z" glyph-name="z" horiz-adv-x="811" d="M770 0H57V76L586 872H102V977H756V905L227 109H770V0Z" />
<glyph unicode="{" glyph-name="braceleft" horiz-adv-x="548" d="M522 -303H498Q346 -303 280 -240T213 -18V381Q213 450 207 488T180 550T128 582T39 598V702Q84 708 109 714T157 733T190 768T207 826T213 915V1305Q213 1358 216 1395T234 1474T275 1543T349
1586T465 1604H522V1503H479Q445 1503 421 1497T381 1477T356 1450T344 1410T339 1366T338 1315V926Q338 799 305 743T172 649Q266 621 302 562T338 375V-4Q338 -91 351 -132T397 -188T498 -203H522V-303Z" />
<glyph unicode="|" glyph-name="bar" horiz-adv-x="468" d="M295 -293H170V1593H295V-293Z" />
<glyph unicode="}" glyph-name="braceright" horiz-adv-x="548" d="M25 1604H49Q202 1604 269 1541T336 1319V920Q336 850 341 813T368 751T418 718T508 702V598Q463 593 438 587T391 568T358 532T342 474T336 385V-4Q336 -55 332 -94T312 -174T269 -242T195 -286T82
-303H25V-203H68Q102 -203 126 -197T166 -177T191 -150T203 -110T208 -66T209 -14V375Q209 501 242 557T375 651Q281 679 245 738T209 926V1305Q209 1431 179 1467T49 1503H25V1604Z" />
<glyph unicode="~" glyph-name="asciitilde" horiz-adv-x="1482" d="M1249 735L1331 651Q1244 542 1164 496T993 449Q898 449 750 524L676 561Q552 623 463 623Q405 623 367 594T236 461L154 545Q233 656 306 704T475 752Q534 752 582 737T758 666L842 629Q914
598 944 588T1004 578Q1066 578 1120 612T1249 735Z" />
</font>
</defs>
</svg>
